<svg xmlns="http://www.w3.org/2000/svg" xmlns:xlink="http://www.w3.org/1999/xlink" width="175" height="175">
	 <style>
      .cls-1, .cls-18, .cls-19, .cls-20, .cls-21, .cls-22, .cls-23, .cls-24, .cls-27, .cls-3, .cls-30, .cls-31, .cls-32, .cls-35, .cls-38, .cls-45, .cls-47, .cls-63 {
        fill: #fff;
      }

      .cls-10, .cls-11, .cls-15, .cls-17, .cls-2, .cls-44, .cls-64 {
        fill: #1f4a82;
      }

      .cls-3, .cls-37 {
        stroke: #707070;
      }

      .cls-4 {
        clip-path: url(#clip-Hearder_navigation);
      }

      .cls-5 {
        clip-path: url(#clip-path);
      }

      .cls-6 {
        fill: url(#pattern);
      }

      .cls-7 {
        opacity: 0.4;
      }

      .cls-8 {
        clip-path: url(#clip-path-2);
      }

      .cls-9 {
        fill: url(#pattern-2);
      }

      .cls-10 {
        opacity: 0.85;
      }

      .cls-11, .cls-19, .cls-47 {
        font-size: 14px;
      }

      .cls-11, .cls-15, .cls-18, .cls-27, .cls-30, .cls-31, .cls-35, .cls-38, .cls-47 {
        font-family: DaxlinePro-Bold, DaxlinePro;
      }

      .cls-11, .cls-15, .cls-17, .cls-18, .cls-27, .cls-30, .cls-31, .cls-32, .cls-35, .cls-38, .cls-47, .cls-60 {
        font-weight: 700;
      }

      .cls-12, .cls-14, .cls-43 {
        fill: #c5d9df;
      }

      .cls-13 {
        fill: url(#pattern-3);
      }

      .cls-14 {
        font-size: 52px;
        font-family: JISAZNBold, JIS AZN;
      }

      .cls-15, .cls-27 {
        font-size: 12px;
      }

      .cls-16 {
        fill: #c4d7de;
      }

      .cls-17 {
        font-size: 28px;
        font-family: DINPro-Bold, DINPro;
      }

      .cls-18 {
        font-size: 18px;
      }

      .cls-19, .cls-23, .cls-24, .cls-64 {
        font-family: DaxlinePro;
      }

      .cls-20 {
        opacity: 0.5;
      }

      .cls-21 {
        opacity: 0.8;
      }

      .cls-22, .cls-40, .cls-41, .cls-43, .cls-44 {
        fill-rule: evenodd;
      }

      .cls-23 {
        font-size: 10px;
      }

      .cls-24, .cls-38 {
        font-size: 8px;
      }

      .cls-25, .cls-41, .cls-66 {
        fill: none;
      }

      .cls-25 {
        stroke: #fff;
        stroke-width: 2px;
      }

      .cls-26 {
        fill: #0f2a4e;
      }

      .cls-28 {
        clip-path: url(#clip-path-3);
      }

      .cls-29 {
        fill: url(#pattern-4);
      }

      .cls-30 {
        font-size: 21px;
      }

      .cls-31, .cls-60 {
        font-size: 16px;
      }

      .cls-32 {
        font-size: 9px;
      }

      .cls-32, .cls-60 {
        font-family: Arial-BoldMT, Arial;
      }

      .cls-33 {
        clip-path: url(#clip-path-4);
      }

      .cls-34 {
        clip-path: url(#clip-path-5);
      }

      .cls-35 {
        font-size: 66px;
      }

      .cls-36 {
        clip-path: url(#clip-path-6);
      }

      .cls-37 {
        fill: url(#pattern-5);
      }

      .cls-39 {
        clip-path: url(#clip-path-7);
      }

      .cls-40, .cls-42 {
        fill: #d9d6d7;
      }

      .cls-45 {
        font-size: 13px;
        font-family: DaxlinePro-ExtraBold, DaxlinePro;
        font-weight: 800;
      }

      .cls-46 {
        font-family: DaxlinePro-Medium, DaxlinePro;
        font-weight: 500;
      }

      .cls-48 {
        fill: #211f1f;
      }

      .cls-49 {
        fill: #d1aa66;
      }

      .cls-50 {
        fill: #bca589;
      }

      .cls-51 {
        fill: #7e6b64;
      }

      .cls-52 {
        fill: #fdfdfd;
      }

      .cls-53 {
        fill: #fff000;
      }

      .cls-54 {
        fill: #00ae64;
      }

      .cls-55 {
        fill: #fbed21;
      }

      .cls-56 {
        fill: #0054a5;
      }

      .cls-57 {
        fill: #0097c3;
      }

      .cls-58 {
        fill: #ed1a23;
      }

      .cls-59 {
        fill: #df0034;
      }

      .cls-61 {
        clip-path: url(#clip-path-8);
      }

      .cls-62 {
        fill: url(#pattern-6);
      }

      .cls-63 {
        opacity: 0.95;
      }

      .cls-64 {
        font-size: 15px;
      }

      .cls-65 {
        stroke: none;
      }

      .cls-67 {
        filter: url(#Rectangle_1469);
      }
    </style>
    <g xmlns="http://www.w3.org/2000/svg" id="Group_164" data-name="Group 164" transform="translate(0 0)">
      <circle id="Ellipse_4" data-name="Ellipse 4" class="cls-1" cx="86.874" cy="86.874" r="86.874" transform="translate(0 0)"/>
      <g id="logo-2" data-name="logo" transform="translate(12 12)">
        <g id="_2067980699264" transform="translate(0 0)">
          <path id="Path_1-3" data-name="Path 1" class="cls-43" d="M456.952,633.247a14.138,14.138,0,0,1-9.225-24.862h-8.756A20.947,20.947,0,1,0,477.9,619.8h0V560.852a16.228,16.228,0,0,0-6.724,0L471.1,619.8h0A14.168,14.168,0,0,1,456.952,633.247Z" transform="translate(-401.913 -516.68)"/>
          <path id="Path_2-3" data-name="Path 2" class="cls-43" d="M286,494h26.347c1.955-20.327,21.578-31.116,38.7-19.7C329.39,451.079,291.942,464.995,286,494Z" transform="translate(-263.64 -426.452)"/>
          <path id="Path_3-4" data-name="Path 3" class="cls-43" d="M892.724,439.111v2.815a25.1,25.1,0,0,0-6.724-2.5V437A26.807,26.807,0,0,1,892.724,439.111Z" transform="translate(-816.732 -402.835)"/>
          <path id="Path_4-4" data-name="Path 4" class="cls-43" d="M886,241h6.724v6.176a38.473,38.473,0,0,0-6.724.156Z" transform="translate(-816.732 -222.158)"/>
          <path id="Path_5-3" data-name="Path 5" class="cls-44" d="M538,336.466c30.725-23.063,83.106-7.662,89.126,42.374H599.137C598.59,338.89,562.94,326.225,538,336.466Z" transform="translate(-495.939 -300.503)"/>
          <path id="Path_6-3" data-name="Path 6" class="cls-2" d="M314.22,929.825h-4.534l-1.954-3.987H297.567l-1.954,3.987H291L300.225,912h4.769Zm-8.6-8.052a36.147,36.147,0,0,1-1.955-3.909,13.387,13.387,0,0,1-1.016-2.658,48.117,48.117,0,0,1-3.049,6.567Zm30.647,2.658a4.9,4.9,0,0,1-.469,2.111,5.821,5.821,0,0,1-1.094,1.72,4.654,4.654,0,0,1-1.642,1.094,4.559,4.559,0,0,1-2.033.469H315V912h16.027a4.238,4.238,0,0,1,1.954.469,6.675,6.675,0,0,1,1.72,1.173,4.334,4.334,0,0,1,1.094,1.72,4.559,4.559,0,0,1,.469,2.033Zm-3.987-7.036a1.052,1.052,0,0,0-.391-.938,1,1,0,0,0-.86-.391H318.91v9.772h12.118a1.255,1.255,0,0,0,.86-.391,1.294,1.294,0,0,0,.391-1.016Zm29.865-1.407H349.01v2.893h12.665v3.987H349.01v6.958H345.1V912h17.043Z" transform="translate(-268.25 -840.699)"/>
          <path id="Path_7-3" data-name="Path 7" class="cls-2" d="M905.987,929.825H902V912h3.987Z" transform="translate(-831.481 -840.699)"/>
          <path id="Path_8-3" data-name="Path 8" class="cls-2" d="M6.88,73.021,0,69.659l.078-1.016L7.427,66.3l-.078,1.095-2.189.625-.313,2.971L6.958,72ZM4.144,70.675l.235-2.424L2.345,68.8a9.012,9.012,0,0,1-1.564.391,9.538,9.538,0,0,1,1.329.547Zm3.205-4.456-.7-.156L3.6,62.075c-.078.391-.078.7-.156,1.016l-.391,2.033-.7-.078L3.127,60.9l.625.078,2.658,3.362.469.625c.078-.391.078-.7.156-1.095l.469-2.345.782.156ZM6.88,55.743A3.181,3.181,0,0,1,8.6,56.759a2.153,2.153,0,0,1,.313,1.955A2.06,2.06,0,0,1,7.74,60.277a2.959,2.959,0,0,1-2.033.078H5.551l.86-3.753a1.709,1.709,0,0,0-1.251.078A1.331,1.331,0,0,0,4.378,57.7a1.4,1.4,0,0,0,.7,1.564l-.313.86a2.152,2.152,0,0,1-1.095-2.658A2.06,2.06,0,0,1,4.847,55.9,2.517,2.517,0,0,1,6.88,55.743Zm.235,1.016-.7,2.815A1.39,1.39,0,0,0,7.427,59.5a1.087,1.087,0,0,0,.782-.938,1.33,1.33,0,0,0-.156-1.095A1.769,1.769,0,0,0,7.114,56.759Zm2.58-1.329L4.847,53.71l.235-.7.7.235a2.927,2.927,0,0,1-.469-.782.668.668,0,0,1,0-.547,1.787,1.787,0,0,1,.547-.782l.7.547a.9.9,0,0,0-.391.547.668.668,0,0,0,0,.547,1.636,1.636,0,0,0,.313.469l.938.469,2.58.86Zm1.251-3.987-.313.782L4.065,49.567l.313-.86,2.345,1.016a1.75,1.75,0,0,1-.078-1.642,1.406,1.406,0,0,1,.469-.7,1.622,1.622,0,0,1,.782-.469,3.807,3.807,0,0,1,.938-.078,2.164,2.164,0,0,1,1.016.235,2.892,2.892,0,0,1,1.72,1.407,2.2,2.2,0,0,1,.078,1.72A1.647,1.647,0,0,1,10.4,51.208ZM8.522,50.5a2.348,2.348,0,0,0,1.329.235,1.3,1.3,0,0,0,1.095-.782,1.362,1.362,0,0,0-.078-1.095,2.31,2.31,0,0,0-1.251-.938,2.284,2.284,0,0,0-1.564-.156,1.02,1.02,0,0,0-.782.7,1.112,1.112,0,0,0,.078,1.095A2.416,2.416,0,0,0,8.522,50.5Zm5.16-6.724a1.793,1.793,0,0,1,.078,1.095,1.5,1.5,0,0,1-.313.938,1.391,1.391,0,0,1-.938.938,1.253,1.253,0,0,1-1.173-.078,1.051,1.051,0,0,1-.547-.469c-.078-.235-.156-.391-.235-.625a2.165,2.165,0,0,1,.078-.7,2.548,2.548,0,0,1,.235-.782,14.329,14.329,0,0,0,.469-1.485.242.242,0,0,0-.156-.078.937.937,0,0,0-.86-.156,1.5,1.5,0,0,0-.7.7,2.7,2.7,0,0,0-.235.938,1.846,1.846,0,0,0,.469.7l-.469.7a1.693,1.693,0,0,1-.625-.7,1.307,1.307,0,0,1-.078-.938,2.075,2.075,0,0,1,.391-1.095,2.811,2.811,0,0,1,.625-.938c.235-.156.391-.313.625-.313a.863.863,0,0,1,.625,0,6.871,6.871,0,0,1,.782.391l1.016.547A7.712,7.712,0,0,0,14.151,43a1.473,1.473,0,0,0,.625.156l-.391.782A2.283,2.283,0,0,1,13.682,43.781Zm-1.72-.86a6.492,6.492,0,0,1-.391,1.407c-.156.391-.156.625-.235.782,0,.156.078.313.078.469.078.078.235.235.313.235a.76.76,0,0,0,.7.078,1.806,1.806,0,0,0,.547-.547,2.082,2.082,0,0,0,.235-.938,1,1,0,0,0-.313-.782,1.359,1.359,0,0,0-.7-.547Zm5,.313-.782-.313c.156-.156.235-.313.313-.391a.772.772,0,0,0,.156-.469.586.586,0,0,0-.078-.391,3.91,3.91,0,0,0-.391-.547c-.078-.078-.078-.156-.156-.235l-5.473-.86.469-.782,3.127.547c.391.078.782.156,1.251.235a4.48,4.48,0,0,1-.86-.86l-2.111-2.5.469-.7,3.6,4.3a12.311,12.311,0,0,1,.782,1.016,1.748,1.748,0,0,1,.235.782,1.162,1.162,0,0,1-.156.7A2.073,2.073,0,0,1,16.965,43.234Zm1.329-9.225.547-.625a1.776,1.776,0,0,1,.7,1.407,1.953,1.953,0,0,1-.391,1.407,2.224,2.224,0,0,1-1.564,1.016,2.81,2.81,0,0,1-2.033-.7,3.146,3.146,0,0,1-1.016-1.016,1.812,1.812,0,0,1-.235-1.251,1.591,1.591,0,0,1,.469-1.173,1.8,1.8,0,0,1,1.173-.86,1.639,1.639,0,0,1,1.329.156l-.391.7a1.69,1.69,0,0,0-.86-.078,1.216,1.216,0,0,0-.625.469,1.161,1.161,0,0,0-.313,1.095,2.5,2.5,0,0,0,1.016,1.251,2.023,2.023,0,0,0,1.407.547,1.22,1.22,0,0,0,1.016-.547.931.931,0,0,0,.235-.86A1.352,1.352,0,0,0,18.294,34.009Zm4.065-3.284A2.319,2.319,0,0,1,22.2,31.82a1.864,1.864,0,0,1-.469.86,1.681,1.681,0,0,1-1.173.782,1.489,1.489,0,0,1-1.095-.313,2.376,2.376,0,0,1-.391-.547,2.283,2.283,0,0,1-.156-.7c.078-.235.078-.469.235-.625a2.167,2.167,0,0,1,.391-.7,11.418,11.418,0,0,0,.7-1.407l-.156-.156a1.264,1.264,0,0,0-.782-.313,1.807,1.807,0,0,0-.86.625,1.425,1.425,0,0,0-.391.86,1.264,1.264,0,0,0,.313.782l-.625.625a1.648,1.648,0,0,1-.391-.86,1.307,1.307,0,0,1,.078-.938,2.575,2.575,0,0,1,.547-1.016,3.624,3.624,0,0,1,.782-.782,1.8,1.8,0,0,1,.7-.235,1.473,1.473,0,0,1,.625.156,2.839,2.839,0,0,1,.7.547l.86.7c.625.469,1.095.782,1.251.938.235.078.391.156.625.235l-.547.7A2.341,2.341,0,0,1,22.36,30.725ZM20.8,29.552a4.891,4.891,0,0,1-.625,1.329,3.428,3.428,0,0,0-.391.7v.469a.61.61,0,0,0,.313.313.845.845,0,0,0,.547.235,1.846,1.846,0,0,0,.7-.469,2.111,2.111,0,0,0,.391-.86,1.625,1.625,0,0,0-.078-.86,2.3,2.3,0,0,0-.625-.625Zm3.44,0-3.753-3.6.547-.625.547.547a1.773,1.773,0,0,1,.547-1.8,1.846,1.846,0,0,1,.7-.469,1.162,1.162,0,0,1,.7-.156,2.777,2.777,0,0,1,.7.313c.078.078.313.235.625.547L27.129,26.5l-.625.625L24.236,24.94a2.563,2.563,0,0,0-.625-.469,1.159,1.159,0,0,0-.547-.078,2.376,2.376,0,0,0-.547.391,1.3,1.3,0,0,0-.391.938,1.745,1.745,0,0,0,.7,1.173l2.033,2.033Zm8.678-12.743a4.02,4.02,0,0,1,1.016,2.58A2.887,2.887,0,0,1,32.6,21.812a2.739,2.739,0,0,1-2.58.625,3.672,3.672,0,0,1-2.267-1.564l-.313-.391,4.378-3.44a2.576,2.576,0,0,0-1.564-.938,2.01,2.01,0,0,0-1.642.547A1.765,1.765,0,0,0,27.989,19l-.86.391a2.615,2.615,0,0,1-.156-1.876,3.382,3.382,0,0,1,1.095-1.564,2.905,2.905,0,0,1,1.72-.625,2.719,2.719,0,0,1,1.72.313A4.67,4.67,0,0,1,32.914,16.809Zm-.547.86-3.6,2.893a2.8,2.8,0,0,0,1.642,1.095,2.327,2.327,0,0,0,1.72-.469,2.012,2.012,0,0,0,.86-1.564A2.9,2.9,0,0,0,32.367,17.669Zm3.674,1.407L33.3,14.7l.7-.391.391.625a3.924,3.924,0,0,1,.156-.938,1.846,1.846,0,0,1,.7-.625,1.5,1.5,0,0,1,.938-.313,1.12,1.12,0,0,1,.782.313,1.756,1.756,0,0,1,.86-1.642,1.519,1.519,0,0,1,1.251-.235,1.74,1.74,0,0,1,1.016.86L41.983,15.4l-.7.391-1.72-2.736a6.232,6.232,0,0,1-.469-.625.992.992,0,0,0-.469-.078.66.66,0,0,0-.547.156.989.989,0,0,0-.547.782,1.486,1.486,0,0,0,.313,1.173l1.564,2.5-.7.469L36.9,14.62a1.693,1.693,0,0,0-.7-.625.778.778,0,0,0-.7.078,1.051,1.051,0,0,0-.469.547.76.76,0,0,0-.078.7,1.681,1.681,0,0,0,.469,1.016l1.407,2.267Zm9.851-6.333a2.7,2.7,0,0,1-.547.938,3.061,3.061,0,0,1-.782.625,1.664,1.664,0,0,1-1.329.156,1.4,1.4,0,0,1-.938-.7,2.283,2.283,0,0,1-.156-.7,1.473,1.473,0,0,1,.156-.625,3.4,3.4,0,0,1,.469-.547,2.159,2.159,0,0,1,.625-.469A4.571,4.571,0,0,0,44.641,10.4a.242.242,0,0,1-.078-.156,1.483,1.483,0,0,0-.547-.625,2.124,2.124,0,0,0-1.095.235,1.846,1.846,0,0,0-.7.625,1.542,1.542,0,0,0,0,.86l-.86.313a2.224,2.224,0,0,1,0-1.016,1.244,1.244,0,0,1,.391-.782,2.975,2.975,0,0,1,1.016-.7,3.349,3.349,0,0,1,1.016-.391,1.735,1.735,0,0,1,.7.078,1.465,1.465,0,0,1,.547.469,2.386,2.386,0,0,1,.391.7l.547,1.016a14.111,14.111,0,0,0,.7,1.329l.469.469-.782.391A1.327,1.327,0,0,1,45.892,12.743Zm-.938-1.72c-.235.235-.625.547-1.095.938a2.326,2.326,0,0,0-.625.547.6.6,0,0,0-.156.391.344.344,0,0,0,.078.391.5.5,0,0,0,.469.391.947.947,0,0,0,.782-.078,1.846,1.846,0,0,0,.7-.625,1.508,1.508,0,0,0,.235-.782,2.038,2.038,0,0,0-.235-.86Zm3.205,1.407L46.283,7.584l.782-.313.235.7A2.027,2.027,0,0,1,48.55,6.567a1.625,1.625,0,0,1,.86-.078,1.561,1.561,0,0,1,.7.156,3.264,3.264,0,0,1,.86,1.329l1.095,2.893-.782.391L50.114,8.287a3.064,3.064,0,0,0-.313-.7,1.26,1.26,0,0,0-.547-.313,1.943,1.943,0,0,0-.625.078,1.711,1.711,0,0,0-.782.7A1.892,1.892,0,0,0,48,9.46l1.016,2.658Zm8.834-5.785a2.572,2.572,0,0,1-.078,2.033A2.025,2.025,0,0,1,55.43,9.929a2.113,2.113,0,0,1-1.955-.313,2.713,2.713,0,0,1-1.016-1.642c0-.078-.078-.156-.078-.235l3.753-1.016a1.9,1.9,0,0,0-.782-1.095,1.215,1.215,0,0,0-1.173-.156A1.345,1.345,0,0,0,53.084,6.8l-.86.156a2.05,2.05,0,0,1,1.72-2.189A2.106,2.106,0,0,1,55.9,5,2.318,2.318,0,0,1,56.993,6.645Zm-.782.782-2.736.782a1.818,1.818,0,0,0,.547.86,1.276,1.276,0,0,0,1.173.156,1.556,1.556,0,0,0,.938-.625A1.967,1.967,0,0,0,56.212,7.427Zm4.144.391.313.7a1.248,1.248,0,0,1-.625.235,1.325,1.325,0,0,1-.782,0,.519.519,0,0,1-.391-.313c-.156-.078-.235-.469-.391-.938l-.625-2.893-.625.156-.156-.7.625-.156-.313-1.251.7-.7.469,1.8.86-.235.156.7-.86.156.625,2.971a3.074,3.074,0,0,1,.156.469c.078.078.156.078.235.156h.313C60.121,7.9,60.2,7.9,60.355,7.818Zm1.095.547L60.2,1.329l.86-.156L62.31,8.209Zm6.333-3.674a3.286,3.286,0,0,1-.391,2.033,2.318,2.318,0,0,1-1.72,1.016,2.1,2.1,0,0,1-1.8-.547,3.01,3.01,0,0,1-.86-1.876V5.16l3.831-.469A2.059,2.059,0,0,0,66.3,3.518a1.442,1.442,0,0,0-1.251-.391A1.327,1.327,0,0,0,63.873,4.3h-.938a2.178,2.178,0,0,1,2.033-1.955,2.354,2.354,0,0,1,1.955.547A3,3,0,0,1,67.782,4.691Zm-.938.7-2.814.313a1.763,1.763,0,0,0,.391.938,1.361,1.361,0,0,0,1.173.391,1.635,1.635,0,0,0,1.016-.547A1.745,1.745,0,0,0,66.844,5.394Zm2.267,1.955L68.8,2.189l.782-.078v.782a4.175,4.175,0,0,1,.547-.782,3.811,3.811,0,0,1,.547-.235,2.355,2.355,0,0,1,.938.235l-.313.86a.842.842,0,0,0-.625-.156.557.557,0,0,0-.469.235.718.718,0,0,0-.313.469,4.458,4.458,0,0,0-.078,1.016l.156,2.736Zm3.205-6.333V0h.86l.078,1.016Zm.156,6.1L72.4,1.955h.86l.078,5.16Zm2.189-.078.078-5.16.782.078v.7a1.936,1.936,0,0,1,1.642-.86,1.576,1.576,0,0,1,.86.235.971.971,0,0,1,.625.469,1.493,1.493,0,0,1,.235.625,2.431,2.431,0,0,1,.078.86l-.078,3.127h-.86V3.987a1.961,1.961,0,0,0-.078-.782,1,1,0,0,0-.313-.469,1.84,1.84,0,0,0-.625-.156,1.571,1.571,0,0,0-1.016.313A2.013,2.013,0,0,0,75.6,4.3l-.078,2.815ZM83.184,5.16l.86.078a2.915,2.915,0,0,0,.156.938,1.693,1.693,0,0,0,.625.7,3.927,3.927,0,0,0,1.016.391,3.709,3.709,0,0,0,.938,0,1.473,1.473,0,0,0,.7-.313.965.965,0,0,0,.313-.625.687.687,0,0,0-.078-.547,1.232,1.232,0,0,0-.547-.547A4.1,4.1,0,0,0,86,4.691c-.625-.313-1.095-.547-1.329-.7a1.985,1.985,0,0,1-.625-.782,1.925,1.925,0,0,1-.078-.938,2.642,2.642,0,0,1,.469-.938A2.133,2.133,0,0,1,85.451.782a3.788,3.788,0,0,1,1.329,0,3.348,3.348,0,0,1,1.329.469,1.826,1.826,0,0,1,.782.938,1.88,1.88,0,0,1,.156,1.173l-.938-.078A1.242,1.242,0,0,0,87.8,2.189,1.639,1.639,0,0,0,86.7,1.642a1.8,1.8,0,0,0-1.329.078.733.733,0,0,0-.469.625.75.75,0,0,0,.156.7,3.225,3.225,0,0,0,1.251.7,4.823,4.823,0,0,1,1.485.782,2.025,2.025,0,0,1,.782.86,1.563,1.563,0,0,1,.156,1.016,1.868,1.868,0,0,1-.547,1.016,1.738,1.738,0,0,1-1.016.625,2.858,2.858,0,0,1-1.407,0A3.1,3.1,0,0,1,84.2,7.505a1.849,1.849,0,0,1-.86-1.016A2.51,2.51,0,0,1,83.184,5.16Zm6.333,3.518,1.173-5,.86.156L90.376,8.913Zm1.876.938.782.313a.566.566,0,0,0,.156.625,1.126,1.126,0,0,0,.782.469.984.984,0,0,0,.938,0,1.046,1.046,0,0,0,.625-.547,3.076,3.076,0,0,0,.313-1.016,1.674,1.674,0,0,1-1.485.235A1.816,1.816,0,0,1,92.1,8.522a2.578,2.578,0,0,1-.078-1.876,3.051,3.051,0,0,1,.547-1.251,2.385,2.385,0,0,1,1.016-.782,2.263,2.263,0,0,1,1.251,0,1.773,1.773,0,0,1,1.251,1.095l.156-.625.782.235-1.095,4.3a5.6,5.6,0,0,1-.7,1.642,1.876,1.876,0,0,1-.938.547,2.955,2.955,0,0,1-1.407-.078,2.525,2.525,0,0,1-1.329-.782A1.54,1.54,0,0,1,91.393,9.616ZM92.878,6.8a2.633,2.633,0,0,0,0,1.564,1.573,1.573,0,0,0,.86.7,1.357,1.357,0,0,0,1.095-.235,2.166,2.166,0,0,0,.782-1.251A1.853,1.853,0,0,0,95.536,6.1a1.229,1.229,0,0,0-.86-.782,1.245,1.245,0,0,0-1.016.235A1.844,1.844,0,0,0,92.878,6.8Zm3.44-3.674.625.156a1.4,1.4,0,0,1-.7.782,1.486,1.486,0,0,1-1.016.078,1.993,1.993,0,0,1-.938-.625A1.417,1.417,0,0,1,94.129,2.5l.547.156a1.13,1.13,0,0,0,.156.547.718.718,0,0,0,.469.313.836.836,0,0,0,.625,0A.942.942,0,0,0,96.318,3.127Zm1.251,5.16a2.782,2.782,0,0,1,1.485-1.72,2.6,2.6,0,0,1,1.72,0A2.371,2.371,0,0,1,102.182,7.9a2.644,2.644,0,0,1-.078,2.033,2.974,2.974,0,0,1-.782,1.329,2.307,2.307,0,0,1-2.424.391A2.263,2.263,0,0,1,97.491,10.4,2.84,2.84,0,0,1,97.569,8.287Zm.86.313a2.257,2.257,0,0,0-.156,1.564,1.421,1.421,0,0,0,.86.782,1.253,1.253,0,0,0,1.173-.078,2.047,2.047,0,0,0,.938-1.251,2.049,2.049,0,0,0,.156-1.485,1.549,1.549,0,0,0-.86-.86,1.253,1.253,0,0,0-1.173.078A2.31,2.31,0,0,0,98.429,8.6Zm3.674,4.3,2.111-4.691.7.313-.313.7a2.927,2.927,0,0,1,.782-.469,1.721,1.721,0,0,1,.625.078,2.532,2.532,0,0,1,.7.625l-.625.625a1.4,1.4,0,0,0-.547-.391A.642.642,0,0,0,105,9.616a1.636,1.636,0,0,0-.469.313,3.229,3.229,0,0,0-.547.86l-1.095,2.5Zm5.082,1.485-.235.782a2.647,2.647,0,0,1-.625-.235,1.429,1.429,0,0,1-.625-.469,1.13,1.13,0,0,1-.156-.547,3.32,3.32,0,0,1,.391-.938l1.329-2.658-.547-.313.313-.625.547.313L108.2,8.6l1.016-.078-.86,1.564.782.391-.313.625-.782-.391-1.329,2.658a1.209,1.209,0,0,0-.235.469.287.287,0,0,0,.078.235c.078.078.156.156.235.156A.6.6,0,0,0,107.185,14.385Zm3.6,2.267a5.538,5.538,0,0,1-1.095.078,2.408,2.408,0,0,1-.938-.391,1.825,1.825,0,0,1-.938-.938,1.562,1.562,0,0,1,.156-1.173c.078-.235.313-.391.469-.547.235-.078.391-.156.625-.235a2.164,2.164,0,0,1,.7.078,4.858,4.858,0,0,0,.782.235,7.248,7.248,0,0,0,1.485.547c.078-.156.078-.156.078-.235a.771.771,0,0,0,.156-.782,1.229,1.229,0,0,0-.7-.7,1.647,1.647,0,0,0-.86-.313,1.622,1.622,0,0,0-.782.469l-.7-.469a1.985,1.985,0,0,1,.782-.625,1.76,1.76,0,0,1,.938-.078,9.485,9.485,0,0,1,1.095.391,2.758,2.758,0,0,1,.86.7c.156.235.313.391.313.625a.863.863,0,0,1,0,.625,6.876,6.876,0,0,1-.391.782l-.547,1.016c-.391.7-.625,1.173-.7,1.329a2.165,2.165,0,0,0-.078.7l-.86-.469C110.7,17.043,110.7,16.887,110.782,16.652Zm.938-1.8a3.85,3.85,0,0,1-1.407-.391,3.169,3.169,0,0,1-.782-.235,1.111,1.111,0,0,0-.469.156c-.078,0-.235.156-.313.235a1.085,1.085,0,0,0,0,.7,1.206,1.206,0,0,0,.547.547,2.082,2.082,0,0,0,.938.235,1.508,1.508,0,0,0,.782-.235,7.575,7.575,0,0,0,.547-.7Zm.547,3.518,4.065-5.785.7.469-4.065,5.864Zm4.925,2.971a4.614,4.614,0,0,1-1.095-.156,2.349,2.349,0,0,1-.86-.469,1.714,1.714,0,0,1-.782-1.095,1.584,1.584,0,0,1,.313-1.173,1.4,1.4,0,0,1,.547-.391,1.162,1.162,0,0,1,.7-.156,1.84,1.84,0,0,1,.625.156c.156.078.391.235.7.391a5.693,5.693,0,0,0,1.407.7l.156-.156a1.264,1.264,0,0,0,.313-.782,1.838,1.838,0,0,0-.625-.782,1.2,1.2,0,0,0-.86-.391,1.12,1.12,0,0,0-.782.313l-.625-.625a2.349,2.349,0,0,1,.86-.469,1.355,1.355,0,0,1,.938.078,4.4,4.4,0,0,1,1.016.547,7.287,7.287,0,0,1,.782.782c.078.313.235.469.235.7a1.839,1.839,0,0,1-.156.625,5.3,5.3,0,0,1-.469.7l-.7.938a5.352,5.352,0,0,0-.938,1.251,5.39,5.39,0,0,0-.235.625l-.7-.625C117.036,21.734,117.114,21.5,117.192,21.343Zm1.173-1.642a6.261,6.261,0,0,1-1.329-.625c-.313-.156-.547-.235-.7-.313h-.469a1.079,1.079,0,0,0-.313.235.649.649,0,0,0-.156.625.945.945,0,0,0,.469.7,1.841,1.841,0,0,0,.782.391,1.546,1.546,0,0,0,.86-.156c.235-.078.391-.313.625-.625Zm.156,3.44,3.284-3.987.625.547-.469.547a1.915,1.915,0,0,1,1.8.391,4.3,4.3,0,0,1,.547.7,1.162,1.162,0,0,1,.156.7,2.282,2.282,0,0,1-.156.7,5.869,5.869,0,0,0-.547.625l-2.033,2.5-.7-.625,2.033-2.424a2.563,2.563,0,0,0,.469-.625c.078-.156,0-.391,0-.547a1.4,1.4,0,0,0-.391-.547,1.5,1.5,0,0,0-.938-.313,1.744,1.744,0,0,0-1.251.782l-1.8,2.111Zm4.144,3.674,3.909-3.44.547.625-.547.469a3.506,3.506,0,0,1,.86.078,2.808,2.808,0,0,1,.782.547,1.648,1.648,0,0,1,.391.86,1.146,1.146,0,0,1-.156.86,1.87,1.87,0,0,1,1.8.625,1.436,1.436,0,0,1,.391,1.173,1.6,1.6,0,0,1-.7,1.173l-2.658,2.267-.547-.625,2.424-2.111.547-.547a1.159,1.159,0,0,0,.078-.547l-.235-.469a1.783,1.783,0,0,0-.938-.469,1.612,1.612,0,0,0-1.095.547l-2.267,1.955-.547-.7,2.5-2.189a1.445,1.445,0,0,0,.547-.7.669.669,0,0,0-.235-.7,1.307,1.307,0,0,0-1.329-.391,3.813,3.813,0,0,0-.938.625l-2.033,1.72Z"/>
          <path id="Path_9-3" data-name="Path 9" class="cls-2" d="M1644.189,396.486a2.463,2.463,0,0,1-1.016-.469,1.843,1.843,0,0,1-.7-.625,1.976,1.976,0,0,1-.469-1.329,1.6,1.6,0,0,1,.625-1.016.89.89,0,0,1,.626-.235,2.163,2.163,0,0,1,.7.078,1.96,1.96,0,0,1,.547.313c.156.156.391.313.625.547a4.675,4.675,0,0,0,1.173,1.094c.078-.078.156-.078.156-.156a.732.732,0,0,0,.469-.625,1.239,1.239,0,0,0-.391-.938,1.276,1.276,0,0,0-.7-.626,1.15,1.15,0,0,0-.86.078l-.391-.782a1.345,1.345,0,0,1,.938-.156,1.3,1.3,0,0,1,.859.313,2.26,2.26,0,0,1,.861.86,2.642,2.642,0,0,1,.469.938,1.153,1.153,0,0,1,.078.7,1.26,1.26,0,0,1-.312.547,5.114,5.114,0,0,1-.626.547l-.938.7a9.5,9.5,0,0,0-1.251.938,3.294,3.294,0,0,0-.391.547l-.547-.782A2.674,2.674,0,0,1,1644.189,396.486Zm1.486-1.251a7.871,7.871,0,0,1-1.094-.938,3.556,3.556,0,0,0-.548-.547.991.991,0,0,0-.469-.078c-.156,0-.234.078-.39.156a.79.79,0,0,0-.313.547,1.745,1.745,0,0,0,.235.782,2.152,2.152,0,0,0,.7.547,1.682,1.682,0,0,0,.86.156,2.415,2.415,0,0,0,.782-.391Zm.313,2.267.625.626a.951.951,0,0,0-.469.782,1.412,1.412,0,0,0,.234.938,1.7,1.7,0,0,0,.7.625.76.76,0,0,0,.7-.078.472.472,0,0,0,.234-.469,3.825,3.825,0,0,0-.234-.938,5.275,5.275,0,0,1-.391-1.329,1.044,1.044,0,0,1,.078-.7,1.691,1.691,0,0,1,.469-.547,1.037,1.037,0,0,1,.625-.235,2.164,2.164,0,0,1,.7.078,1.628,1.628,0,0,1,.469.313,2.105,2.105,0,0,1,.548.625,4.806,4.806,0,0,1,.391.938,1.6,1.6,0,0,1,0,.86,1.449,1.449,0,0,1-.547.7l-.547-.7a.711.711,0,0,0,.313-.625.837.837,0,0,0-.235-.782c-.234-.313-.391-.547-.625-.547a.667.667,0,0,0-.547,0c-.078.078-.157.156-.157.235a.494.494,0,0,0,0,.469,3.269,3.269,0,0,0,.235.7,9.46,9.46,0,0,1,.313,1.329.926.926,0,0,1-.078.782,1.469,1.469,0,0,1-.47.547,1.576,1.576,0,0,1-.859.234,1.177,1.177,0,0,1-.86-.313,2.486,2.486,0,0,1-.781-.782,2.058,2.058,0,0,1-.469-1.485A1.764,1.764,0,0,1,1645.987,397.5Zm1.486,5.316,4.456-2.58.469.782-4.534,2.58Zm2.423,4.613,6.645-2.736,1.8,4.534-.782.313-1.407-3.6-2.111.782,1.251,3.127-.782.313-1.251-3.127-2.971,1.251Zm4.457,4.378a2.5,2.5,0,0,1,2.267.078,2.106,2.106,0,0,1,1.1,1.329,2.223,2.223,0,0,1-.078,1.876,2.752,2.752,0,0,1-1.642,1.251,2.94,2.94,0,0,1-1.564.235,2.084,2.084,0,0,1-1.094-.547,2.646,2.646,0,0,1-.7-1.094,2.253,2.253,0,0,1,.078-1.876A2.751,2.751,0,0,1,1654.353,411.809Zm.312.86a1.914,1.914,0,0,0-1.25.86,1.56,1.56,0,0,0-.157,1.173,1.346,1.346,0,0,0,.86.86,1.849,1.849,0,0,0,1.564-.078,1.915,1.915,0,0,0,1.251-.86,1.254,1.254,0,0,0,.078-1.173,1.423,1.423,0,0,0-.782-.86A2.2,2.2,0,0,0,1654.665,412.669Zm-.86,5.551,5.082-1.095.156.7-.7.156a2.073,2.073,0,0,1,1.173,1.485,2.942,2.942,0,0,1,.078.86,1.569,1.569,0,0,1-.313.625,4.345,4.345,0,0,1-.626.469,3.342,3.342,0,0,0-.781.234l-3.128.7-.156-.86,3.049-.7a1.814,1.814,0,0,0,.782-.313.72.72,0,0,0,.313-.469.857.857,0,0,0,0-.626,1.487,1.487,0,0,0-.547-.86,2.024,2.024,0,0,0-1.407-.078l-2.736.625Zm1.72,8.756.625-.078a1.67,1.67,0,0,1-.938-1.329,2.046,2.046,0,0,1,.157-1.173,1.987,1.987,0,0,1,.859-.938,2.957,2.957,0,0,1,1.329-.469,2.869,2.869,0,0,1,1.407.078,1.935,1.935,0,0,1,1.1.625,2.335,2.335,0,0,1,.469,1.094,1.626,1.626,0,0,1-.078.86,1.7,1.7,0,0,1-.391.625l2.5-.391.078.86-7.036,1.016Zm2.111-3.127a2.361,2.361,0,0,0-1.407.625,1.4,1.4,0,0,0-.312,1.095,1.309,1.309,0,0,0,.625.86,1.921,1.921,0,0,0,1.408.235,2.642,2.642,0,0,0,1.485-.625,1.214,1.214,0,0,0,.391-1.095,1.285,1.285,0,0,0-.625-.938A2.987,2.987,0,0,0,1657.636,423.849Zm-1.564,8.678.7-.078a1.959,1.959,0,0,1-1.016-1.564,1.546,1.546,0,0,1,.156-.86,1.235,1.235,0,0,1,.391-.625,1.178,1.178,0,0,1,.626-.313,4.384,4.384,0,0,1,.782-.156l3.205-.235.078.86-2.893.235a1.822,1.822,0,0,0-.86.156c-.235.078-.469.156-.547.391a1.464,1.464,0,0,0-.157.625,2.351,2.351,0,0,0,.313.782,1.4,1.4,0,0,0,.548.391,3.823,3.823,0,0,0,1.016.078l2.736-.235.078.86-5.082.469Z" transform="translate(-1513.628 -360.992)"/>
          <path id="Path_10-11" data-name="Path 10" class="cls-2" d="M121,1355.987l8.053-.782.547.938-5.394,5.785-.469-.938,1.642-1.72-1.485-2.658-2.345.313Zm3.753.547,1.173,2.111,1.564-1.564a7.15,7.15,0,0,1,1.095-1.094,9.1,9.1,0,0,1-1.407.313Zm-.235,5.55.625-.391,5.238.782c-.235-.312-.391-.625-.547-.86l-1.251-1.8.7-.313,2.345,3.518-.547.313-4.534-.625-.782-.157a6.54,6.54,0,0,1,.625.938l1.329,2.033-.625.39Zm6.724,6.333.547.782a2.764,2.764,0,0,1-1.564.157,2.621,2.621,0,0,1-1.329-.939,2.071,2.071,0,0,1-.625-1.8,2.91,2.91,0,0,1,1.251-1.721,2.881,2.881,0,0,1,2.111-.7,2.185,2.185,0,0,1,1.72.86,2.255,2.255,0,0,1,.547,1.8,3.155,3.155,0,0,1-1.251,1.72.609.609,0,0,1-.235.156l-2.5-3.049a2.07,2.07,0,0,0-.782,1.173,1.644,1.644,0,0,0,.391,1.172,1.138,1.138,0,0,0,.7.469A1.555,1.555,0,0,0,131.242,1368.418Zm-.7-3.127,1.876,2.267a1.512,1.512,0,0,0,.625-.86,1.365,1.365,0,0,0-.313-1.172,1.45,1.45,0,0,0-.938-.547A2.476,2.476,0,0,0,130.538,1365.291Zm.7,5.707,4.222-3.284.469.625-.625.469a2.162,2.162,0,0,1,1.016,0,.642.642,0,0,1,.469.312,1.01,1.01,0,0,1,.391.86l-.86.234a1.167,1.167,0,0,0-.234-.547.791.791,0,0,0-.547-.312.923.923,0,0,0-.625.078,2.019,2.019,0,0,0-.86.547l-2.267,1.72Zm2.893,3.049-.625-.547,5.551-4.848.625.625-1.955,1.72a1.942,1.942,0,0,1,1.564.547,2.083,2.083,0,0,1,.469.781,1.691,1.691,0,0,1,.078.86,2.5,2.5,0,0,1-1.016,1.72,3.2,3.2,0,0,1-2.111.938,2.374,2.374,0,0,1-1.642-.625,1.543,1.543,0,0,1-.469-1.564Zm1.955-1.8a4.228,4.228,0,0,0-.86,1.094,1.569,1.569,0,0,0,.313,1.329,1.694,1.694,0,0,0,1.095.391,3.637,3.637,0,0,0,1.485-.7,2.39,2.39,0,0,0,.86-1.329,1.157,1.157,0,0,0-.313-1.017,1.362,1.362,0,0,0-1.095-.391A2.659,2.659,0,0,0,136.089,1372.249Zm4.691,6.88a4.724,4.724,0,0,1-1.173-.156,3.23,3.23,0,0,1-.86-.547,1.682,1.682,0,0,1-.782-1.173,1.576,1.576,0,0,1,.391-1.094,1.7,1.7,0,0,1,.625-.391,2.166,2.166,0,0,1,.7-.078,1.261,1.261,0,0,1,.7.234,3.446,3.446,0,0,1,.7.391,9.416,9.416,0,0,0,1.485.782l.156-.157a1.27,1.27,0,0,0,.313-.7,1.49,1.49,0,0,0-.547-.938,1.856,1.856,0,0,0-.938-.391,1.454,1.454,0,0,0-.86.313l-.625-.7a2.412,2.412,0,0,1,.938-.391,2.329,2.329,0,0,1,1.016.078,7.114,7.114,0,0,1,1.016.626,3.683,3.683,0,0,1,.782.86,1.26,1.26,0,0,1,.235.7,1.248,1.248,0,0,1-.235.625c-.078.078-.235.313-.547.625l-.782.86a15.232,15.232,0,0,0-1.016,1.173,1.039,1.039,0,0,0-.234.625l-.782-.547A2.351,2.351,0,0,1,140.78,1379.128Zm1.329-1.485a11.657,11.657,0,0,1-1.407-.7,3.454,3.454,0,0,0-.7-.391c-.156,0-.313-.078-.469,0s-.313.078-.391.235a.888.888,0,0,0-.235.625,1.841,1.841,0,0,0,.469.7,4.162,4.162,0,0,0,.86.391,1.926,1.926,0,0,0,.938-.078c.156-.078.391-.313.7-.547Zm4.144-1.407.7-.781.7.547-.7.782ZM142.187,1381l3.44-4.066.7.547-3.44,4.065Zm5.629-3.675.625-.86.782.547-.625.782Zm-6.02,5.864.625-.469c.078.078.235.235.313.235a.369.369,0,0,0,.469.078c.078,0,.313-.235.625-.625l3.362-4.378.782.547-3.362,4.378c-.469.547-.782.86-1.095.938a1.12,1.12,0,0,1-1.173-.234A3.409,3.409,0,0,1,141.8,1383.194Zm7.505,1.564a2.934,2.934,0,0,1-1.173,0,2.4,2.4,0,0,1-.938-.391,1.916,1.916,0,0,1-.938-1.016,1.609,1.609,0,0,1,.235-1.173,1.05,1.05,0,0,1,.547-.469,2.278,2.278,0,0,1,.7-.157,2.156,2.156,0,0,1,.7.078c.156.078.469.156.782.313a9.1,9.1,0,0,0,1.564.625.606.606,0,0,1,.156-.235,1.015,1.015,0,0,0,.156-.782,1.6,1.6,0,0,0-.7-.782,1.666,1.666,0,0,0-.938-.313,1.406,1.406,0,0,0-.782.469l-.7-.625a3.22,3.22,0,0,1,.86-.547,1.9,1.9,0,0,1,.938,0,3.693,3.693,0,0,1,1.173.469,4.433,4.433,0,0,1,.86.782c.156.235.313.391.313.625a1.721,1.721,0,0,1-.078.625,5.294,5.294,0,0,1-.469.7l-.625,1.016a6.776,6.776,0,0,0-.86,1.329,1.475,1.475,0,0,0-.156.625l-.86-.547A5.377,5.377,0,0,0,149.3,1384.758Zm1.095-1.642a10.109,10.109,0,0,1-1.485-.469,2.638,2.638,0,0,0-.782-.313.987.987,0,0,0-.469.079,1.075,1.075,0,0,0-.313.234.689.689,0,0,0-.156.625,1.391,1.391,0,0,0,.547.626,1.5,1.5,0,0,0,.938.313,1.55,1.55,0,0,0,.86-.156,1.409,1.409,0,0,0,.625-.7Zm.469,3.284,2.58-4.534.782.391-.391.625a2.155,2.155,0,0,1,1.955,0,2.743,2.743,0,0,1,.7.548,1.6,1.6,0,0,1,.391.7,2.162,2.162,0,0,1-.078.7,6.819,6.819,0,0,1-.391.782l-1.564,2.736-.86-.391,1.564-2.736a1.264,1.264,0,0,0,.313-.782.745.745,0,0,0-.156-.547.8.8,0,0,0-.469-.391,1.719,1.719,0,0,0-1.095-.156,1.784,1.784,0,0,0-1.016,1.016l-1.407,2.5Zm8.053,3.831,2.424-6.724,2.5.782c.547.235.938.391,1.251.547a2.786,2.786,0,0,1,.86.782,3.186,3.186,0,0,1,.391,1.407,4.559,4.559,0,0,1-.235,1.72,10.267,10.267,0,0,1-.7,1.33,3.9,3.9,0,0,1-.86.782,2.708,2.708,0,0,1-.86.391,4.114,4.114,0,0,1-1.016.078,3.848,3.848,0,0,1-1.173-.235Zm1.251-.469,1.485.469a3.869,3.869,0,0,0,1.173.234,1.284,1.284,0,0,0,.782-.157,2,2,0,0,0,.86-.625,4.678,4.678,0,0,0,.625-1.251,3.719,3.719,0,0,0,.235-1.72,1.711,1.711,0,0,0-.625-1.094,8.829,8.829,0,0,0-1.173-.547l-1.485-.469Zm9.929,2.032.938.391a2.26,2.26,0,0,1-1.173.938,2,2,0,0,1-1.642,0,2.318,2.318,0,0,1-1.642-1.094,2.454,2.454,0,0,1-.078-2.111,2.652,2.652,0,0,1,1.251-1.72,2.806,2.806,0,0,1,1.954-.234,2.428,2.428,0,0,1,1.564,1.173,2.571,2.571,0,0,1,.078,2.032c0,.078-.078.157-.078.235l-3.909-1.016a1.519,1.519,0,0,0,.078,1.329,1.824,1.824,0,0,0,.938.782,1.233,1.233,0,0,0,.938-.078A1.186,1.186,0,0,0,170.1,1391.794Zm-2.5-2.111,2.971.782a1.442,1.442,0,0,0-.078-1.017,1.569,1.569,0,0,0-.938-.782,1.972,1.972,0,0,0-1.173.078A1.827,1.827,0,0,0,167.6,1389.683Zm3.831,6.02,1.407-6.959.86.157-.156.626a2.08,2.08,0,0,1,.782-.469,1.9,1.9,0,0,1,.938,0,2.053,2.053,0,0,1,1.173.547,1.836,1.836,0,0,1,.547,1.094,2.166,2.166,0,0,1,0,1.407,3.982,3.982,0,0,1-.547,1.329,2.193,2.193,0,0,1-1.095.782,2.236,2.236,0,0,1-1.251.078,1.391,1.391,0,0,1-.782-.313c-.156-.157-.391-.313-.469-.547l-.547,2.423Zm1.72-4.3a2.008,2.008,0,0,0,.156,1.564,1.037,1.037,0,0,0,.86.625,1.308,1.308,0,0,0,1.173-.313,2,2,0,0,0,.7-1.406,1.889,1.889,0,0,0-.078-1.486,1.3,1.3,0,0,0-2.033-.391A2.473,2.473,0,0,0,173.146,1391.4Zm4.3.7a2.751,2.751,0,0,1,1.095-2.032,2.57,2.57,0,0,1,1.72-.391,2.288,2.288,0,0,1,1.8.782,2.529,2.529,0,0,1,.547,2.032,3.326,3.326,0,0,1-.469,1.486,2.227,2.227,0,0,1-1.016.86,2.511,2.511,0,0,1-1.329.156,2.475,2.475,0,0,1-1.8-.86A2.747,2.747,0,0,1,177.446,1392.106Zm1.016.078a1.712,1.712,0,0,0,.313,1.485,1.248,1.248,0,0,0,1.095.626,1.535,1.535,0,0,0,1.173-.391,2.387,2.387,0,0,0,.625-1.485,2.8,2.8,0,0,0-.313-1.486,1.663,1.663,0,0,0-1.173-.547,1.362,1.362,0,0,0-1.173.391A1.939,1.939,0,0,0,178.463,1392.185Zm4.691,1.329.938-.078a.962.962,0,0,0,.391.782,1.247,1.247,0,0,0,.938.313,1.779,1.779,0,0,0,1.016-.234.792.792,0,0,0,.313-.548.677.677,0,0,0-.234-.469c-.156-.078-.469-.156-.938-.312a4.725,4.725,0,0,1-1.407-.469,1.448,1.448,0,0,1-.625-.547,1.472,1.472,0,0,1-.156-.625,2.28,2.28,0,0,1,.156-.7l.469-.469a5.454,5.454,0,0,1,.625-.235c.235,0,.547-.078.782-.078a4.416,4.416,0,0,1,1.173.235,2.734,2.734,0,0,1,.7.469,2.205,2.205,0,0,1,.313.86l-.938.078a1.177,1.177,0,0,0-.313-.625,1.405,1.405,0,0,0-.86-.235,1.211,1.211,0,0,0-.938.156.718.718,0,0,0-.313.469c0,.078.078.156.156.313a1.088,1.088,0,0,0,.313.234,15.8,15.8,0,0,1,2.189.7,1.214,1.214,0,0,1,.625.469,1.866,1.866,0,0,1,.156.7,1.175,1.175,0,0,1-.313.86,2,2,0,0,1-.782.547,2.666,2.666,0,0,1-1.173.157,2.566,2.566,0,0,1-1.642-.469A1.915,1.915,0,0,1,183.153,1393.514Zm5.394-4.456-.078-1.016.938-.078.078,1.016Zm.235,6.1-.235-5.16.938-.078.156,5.16Zm4.222-1.095.234.782c-.234,0-.469.078-.7.078a1.287,1.287,0,0,1-.782-.078.781.781,0,0,1-.391-.313,1.612,1.612,0,0,1-.235-1.016l-.313-2.971-.625.078-.078-.7.7-.078-.156-1.251.86-.625.156,1.8.938-.078.078.7-.938.078.313,2.971c0,.234,0,.391.078.469a.168.168,0,0,0,.156.156c.078.078.156.078.313.078S192.848,1394.061,193,1394.061Zm4.143.313-1.485-6.958,1.016-.157,1.407,6.958Zm2.658-.391-1.329-5,.782-.156.156.7a2.388,2.388,0,0,1,1.485-1.251,1.916,1.916,0,0,1,.938,0,1.478,1.478,0,0,1,.7.235,1.87,1.87,0,0,1,.469.625,2.3,2.3,0,0,1,.235.782l.86,3.049-.938.234-.782-3.049a4.028,4.028,0,0,0-.313-.782,2.445,2.445,0,0,0-.469-.312h-.7a1.389,1.389,0,0,0-.86.625c-.235.234-.235.7-.078,1.407l.7,2.737Zm4.925-2.658.86-.392c.156.313.313.548.625.626a1.492,1.492,0,0,0,1.016.078,1.812,1.812,0,0,0,.86-.548.841.841,0,0,0,.156-.625.8.8,0,0,0-.469-.391h-.938a6.812,6.812,0,0,1-1.485-.078,1,1,0,0,1-.782-.313,1.4,1.4,0,0,1-.391-.547,2.128,2.128,0,0,1,0-.7,1.262,1.262,0,0,1,.313-.547.8.8,0,0,1,.469-.391,2.343,2.343,0,0,1,.782-.313,2.847,2.847,0,0,1,1.094-.156,1.421,1.421,0,0,1,.86.313,1.486,1.486,0,0,1,.547.625l-.86.391a.944.944,0,0,0-.547-.547,1.579,1.579,0,0,0-.86,0,1.676,1.676,0,0,0-.782.469c-.156.157-.235.313-.156.469,0,.157.078.235.235.313a.586.586,0,0,0,.391.078c.078.078.391.078.86,0a6.383,6.383,0,0,1,1.407.078.989.989,0,0,1,.7.313.81.81,0,0,1,.469.625,1.605,1.605,0,0,1,0,.86,1.979,1.979,0,0,1-.625.782,2.045,2.045,0,0,1-1.016.469,2.643,2.643,0,0,1-1.72.078A2.545,2.545,0,0,1,204.731,1391.325Zm9.147-1.329-.235-.7a2.163,2.163,0,0,1-1.329,1.407,2.812,2.812,0,0,1-.86.156,1.32,1.32,0,0,1-.782-.235,1.467,1.467,0,0,1-.547-.469,3.062,3.062,0,0,1-.313-.7l-1.329-2.971.86-.313,1.173,2.658a7,7,0,0,0,.391.782.907.907,0,0,0,.547.391,1.408,1.408,0,0,0,.782-.078,1.214,1.214,0,0,0,.625-.469,1.091,1.091,0,0,0,.235-.7,2.706,2.706,0,0,0-.235-.938l-1.095-2.58.86-.313,2.033,4.769Zm2.033-.86-2.345-4.691.782-.312.313.7a4.154,4.154,0,0,1,.235-.86,2.66,2.66,0,0,1,.469-.469,2.17,2.17,0,0,1,1.016-.078l.078.86a1.736,1.736,0,0,0-.7.078c-.235.078-.313.235-.469.391a1.331,1.331,0,0,0-.078.547,5.058,5.058,0,0,0,.313,1.017l1.251,2.423Zm6.02-3.674a2.706,2.706,0,0,1-.547.938,3.056,3.056,0,0,1-.782.625,2.027,2.027,0,0,1-1.407.313,1.379,1.379,0,0,1-1.016-.7,2.282,2.282,0,0,1-.156-.7.882.882,0,0,1,.078-.625,3.4,3.4,0,0,1,.469-.547,5.121,5.121,0,0,1,.625-.547,6.689,6.689,0,0,0,1.251-1.016.271.271,0,0,0-.078-.156c-.156-.313-.391-.548-.625-.548a1.486,1.486,0,0,0-1.095.235,1.137,1.137,0,0,0-.7.626,1.6,1.6,0,0,0,0,.86l-.86.313a1.926,1.926,0,0,1-.078-.938,1.246,1.246,0,0,1,.391-.782,3.508,3.508,0,0,1,1.016-.781,4.349,4.349,0,0,1,1.016-.391,1.3,1.3,0,0,1,.782,0,1.405,1.405,0,0,1,.547.391,2.733,2.733,0,0,1,.469.7l.625,1.016a9.529,9.529,0,0,0,.938,1.251c.078.234.313.312.469.469l-.782.469A3.4,3.4,0,0,1,221.931,1385.461Zm-1.095-1.642c-.235.235-.625.547-1.094.938a5.929,5.929,0,0,0-.625.547.575.575,0,0,0-.156.469.849.849,0,0,0,.078.391.9.9,0,0,0,.547.391,2.039,2.039,0,0,0,.86-.234,1.85,1.85,0,0,0,.7-.626,1.506,1.506,0,0,0,.235-.782,2.694,2.694,0,0,0-.391-.86Zm3.362,1.173-2.971-4.378.7-.391.391.625a1.915,1.915,0,0,1,1.016-1.642,2.819,2.819,0,0,1,.86-.313,1.352,1.352,0,0,1,.782.078,1.2,1.2,0,0,1,.547.391,1.934,1.934,0,0,1,.547.7l1.876,2.58-.782.547-1.8-2.658a5.082,5.082,0,0,0-.547-.625,1.841,1.841,0,0,0-.625-.156,1.575,1.575,0,0,0-1.251,1.016c-.156.391,0,.782.391,1.329l1.642,2.424Zm6.411-6.723.782-.469a2.281,2.281,0,0,1,.313,1.564,2.155,2.155,0,0,1-.86,1.251,2.256,2.256,0,0,1-1.8.547,2.767,2.767,0,0,1-1.876-1.172,3.674,3.674,0,0,1-.782-1.251,2.568,2.568,0,0,1,.078-1.329,3.228,3.228,0,0,1,.782-1.016,2.576,2.576,0,0,1,1.485-.469,2.124,2.124,0,0,1,1.329.469l-.625.625a1.3,1.3,0,0,0-.86-.313,1.322,1.322,0,0,0-.782.234,1.269,1.269,0,0,0-.547,1.095,1.841,1.841,0,0,0,.625,1.407,2.61,2.61,0,0,0,1.329.938,1.5,1.5,0,0,0,1.173-.313,1.322,1.322,0,0,0,.547-.782A1.89,1.89,0,0,0,230.609,1378.269Zm4.144-3.206.782-.547a1.959,1.959,0,0,1-.547,2.736,2.541,2.541,0,0,1-1.876.782,3.27,3.27,0,0,1-2.893-2.892,2.334,2.334,0,0,1,.782-1.72,2.234,2.234,0,0,1,1.8-.626,2.722,2.722,0,0,1,1.954.938l.156.157-2.893,2.736a2.22,2.22,0,0,0,1.329.547,1.766,1.766,0,0,0,1.173-.391,1.086,1.086,0,0,0,.391-.782A1.473,1.473,0,0,0,234.752,1375.063Zm-3.284,1.016,2.267-2.033a1.68,1.68,0,0,0-1.016-.469,1.29,1.29,0,0,0-1.173.391,1.26,1.26,0,0,0-.469,1.016A1.709,1.709,0,0,0,231.469,1376.08Zm8.131-3.284-5.785-4.612,3.284-3.674.7.547-2.658,2.97,1.8,1.408,2.267-2.58.7.547-2.267,2.58,2.58,2.111Zm6.02-7.349-.625-.469a1.981,1.981,0,0,1-.235,1.876,2.16,2.16,0,0,1-.7.547,1.264,1.264,0,0,1-.7.234,1.547,1.547,0,0,1-.782-.156,1.606,1.606,0,0,1-.7-.391l-2.814-1.8.547-.782,2.5,1.642a4.552,4.552,0,0,0,.86.547.86.86,0,0,0,.625,0,1.214,1.214,0,0,0,.625-.469.955.955,0,0,0,.235-.7,1.162,1.162,0,0,0-.156-.7,2.345,2.345,0,0,0-.782-.7l-2.424-1.564.547-.7,4.456,2.971Zm1.329-1.72-4.769-2.5.391-.7.7.312a1.662,1.662,0,0,1,0-1.8,1.845,1.845,0,0,1,.625-.7,2.774,2.774,0,0,1,.7-.313,2.926,2.926,0,0,1,.782.078,7.011,7.011,0,0,0,.782.391l2.971,1.564-.469.782-2.893-1.563c-.391-.157-.625-.234-.86-.313a.746.746,0,0,0-.547.156,1.325,1.325,0,0,0-.469.469,1.491,1.491,0,0,0-.156,1.017c.078.313.391.625,1.016.938l2.658,1.408Zm4.534-7.818-.625-.234a1.419,1.419,0,0,1,0,1.564,1.55,1.55,0,0,1-.86.86,2.294,2.294,0,0,1-1.251.313,3.506,3.506,0,0,1-1.485-.391,4.55,4.55,0,0,1-1.173-.86,1.643,1.643,0,0,1-.547-1.1,1.54,1.54,0,0,1,.235-1.172,1.7,1.7,0,0,1,.547-.7,1.507,1.507,0,0,1,.782-.235l-2.424-1.172.469-.782,6.724,3.205Zm-3.753,1.33a2.446,2.446,0,0,0,1.564.313c.469-.156.782-.312.938-.7a.955.955,0,0,0,0-1.017,2.011,2.011,0,0,0-1.095-1.016,3.152,3.152,0,0,0-1.72-.391,1.454,1.454,0,0,0-.938.7,1.331,1.331,0,0,0,0,1.094A2.152,2.152,0,0,0,247.73,1357.238Z" transform="translate(-111.54 -1246.3)"/>
        </g>
      </g>
    </g>
</svg>